<svg xmlns="http://www.w3.org/2000/svg" width="375" viewBox="0 0 375 375" height="375" version="1.0"><defs><clipPath id="a"><path d="M 105.457031 96.167969 L 269.707031 96.167969 L 269.707031 236.417969 L 105.457031 236.417969 Z M 105.457031 96.167969"/></clipPath><clipPath id="b"><path d="M 105.457031 96.167969 L 269.707031 96.167969 L 269.707031 236.417969 L 105.457031 236.417969 Z M 105.457031 96.167969"/></clipPath><clipPath id="c"><path d="M 158.367188 152.011719 L 234 152.011719 L 234 184 L 158.367188 184 Z M 158.367188 152.011719"/></clipPath><clipPath id="d"><path d="M 158.367188 152.011719 L 234.117188 152.011719 L 234.117188 184.261719 L 158.367188 184.261719 Z M 158.367188 152.011719"/></clipPath></defs><g clip-path="url(#a)"><path fill="#323130" d="M 268.132812 201.777344 C 266.71875 206.707031 263.625 211.34375 259.125 213.929688 C 254.9375 216.34375 249.652344 217.035156 245.058594 215.417969 C 245.28125 221.457031 241.921875 227.378906 236.578125 230.410156 C 229.78125 234.257812 221.214844 233.527344 214.765625 229.316406 C 212.996094 228.160156 211.363281 226.785156 209.941406 225.222656 C 208.929688 224.101562 207.941406 222.875 207.171875 221.546875 C 205.84375 224.003906 204.085938 226.210938 202.007812 228.09375 C 198.855469 230.9375 195.046875 233.054688 191.027344 234.394531 C 186.753906 235.816406 182.246094 236.339844 177.753906 236.003906 C 172.703125 235.628906 167.75 234.257812 163.109375 232.265625 C 160.726562 231.242188 158.40625 230.066406 156.171875 228.742188 C 155.773438 228.503906 155.375 228.265625 154.976562 228.019531 C 149.679688 230.667969 143.65625 231.9375 137.78125 231.867188 C 130.351562 231.78125 122.972656 229.359375 117.207031 224.601562 C 111.886719 220.214844 108.003906 214.003906 106.453125 207.269531 C 105.675781 203.917969 105.46875 200.457031 105.925781 197.039062 C 106.417969 193.390625 107.71875 189.890625 109.503906 186.679688 C 113.199219 180.007812 118.925781 174.703125 124.625 169.769531 C 124.628906 169.765625 124.628906 169.765625 124.632812 169.761719 C 123.929688 167.433594 123.359375 165.066406 122.921875 162.671875 C 121.945312 157.316406 121.613281 151.851562 122.03125 146.421875 C 122.445312 140.996094 123.582031 135.613281 125.5 130.515625 C 127.167969 126.070312 129.4375 121.851562 132.210938 118.003906 C 134.953125 114.195312 138.1875 110.746094 141.808594 107.765625 C 145.414062 104.796875 149.417969 102.308594 153.691406 100.421875 C 157.964844 98.53125 162.519531 97.269531 167.167969 96.742188 C 171.820312 96.222656 176.554688 96.425781 181.148438 97.3125 C 185.800781 98.210938 190.320312 99.773438 194.503906 102.003906 C 198.164062 103.945312 201.519531 106.410156 204.433594 109.351562 C 204.628906 109.542969 204.824219 109.742188 205.011719 109.941406 C 212.835938 105.023438 223.730469 106.886719 230.550781 112.855469 C 234.429688 116.253906 237.160156 120.839844 238.726562 125.734375 C 239.519531 128.210938 240.023438 130.78125 240.253906 133.371094 C 240.511719 136.28125 240.292969 139.175781 240.1875 142.089844 C 240.074219 145.140625 240.175781 148.214844 241.351562 151.074219 C 242.375 153.546875 244.050781 155.699219 245.867188 157.632812 C 247.773438 159.660156 249.867188 161.503906 251.875 163.429688 C 254.046875 165.507812 256.152344 167.644531 258.121094 169.914062 C 262.027344 174.421875 265.398438 179.453125 267.355469 185.128906 C 269.195312 190.472656 269.703125 196.308594 268.132812 201.777344"/></g><path fill="#393536" d="M 211.210938 144.753906 C 211.628906 145.167969 211.914062 145.734375 211.808594 146.335938 C 211.699219 146.960938 211.257812 147.457031 210.753906 147.816406 C 209.324219 148.835938 207.289062 149.003906 205.621094 148.644531 C 204.363281 148.378906 202.671875 147.628906 202.640625 146.125 C 202.679688 144.40625 205.015625 143.660156 206.371094 143.496094 C 207.96875 143.308594 210.011719 143.558594 211.210938 144.753906 Z M 188.730469 146.058594 C 188.738281 146.148438 188.730469 146.242188 188.714844 146.335938 C 188.605469 146.960938 188.160156 147.457031 187.65625 147.816406 C 186.226562 148.835938 184.195312 149.003906 182.523438 148.644531 C 182.503906 148.640625 182.484375 148.636719 182.460938 148.632812 C 184.609375 147.910156 186.707031 147.0625 188.730469 146.058594 Z M 246.925781 175.347656 C 246.015625 179.027344 243.394531 182.210938 240.0625 183.972656 C 236.589844 185.804688 232.171875 186.269531 228.34375 185.128906 C 227.808594 186.480469 227.175781 187.792969 226.4375 189.054688 C 224.5625 192.253906 222.011719 195.015625 219.058594 197.238281 C 212.761719 201.976562 204.910156 204.164062 197.097656 204.203125 C 188.523438 204.25 179.929688 201.976562 172.171875 198.40625 C 166.542969 195.820312 161.121094 192.277344 157.136719 187.476562 C 156.734375 187.988281 156.308594 188.484375 155.867188 188.964844 C 153.652344 191.375 150.863281 193.636719 147.703125 194.636719 C 147.410156 194.730469 147.066406 194.683594 146.875 194.417969 C 146.695312 194.164062 146.792969 193.890625 147.050781 193.753906 C 148.359375 193.054688 149.628906 192.347656 150.847656 191.492188 C 152.007812 190.671875 153.097656 189.742188 154.085938 188.71875 C 154.835938 187.945312 155.535156 187.128906 156.183594 186.265625 C 156.417969 185.964844 156.640625 185.65625 156.855469 185.347656 C 157.6875 184.15625 158.425781 182.90625 159.0625 181.609375 C 162.070312 175.527344 162.894531 168.671875 162.621094 161.953125 C 162.480469 158.605469 162.101562 155.28125 161.601562 151.972656 C 159.640625 152.011719 157.683594 151.984375 155.730469 151.882812 C 154.980469 151.847656 154.84375 150.863281 155.667969 150.847656 C 157.578125 150.8125 159.492188 150.769531 161.402344 150.691406 C 161.773438 150.679688 162.148438 150.664062 162.519531 150.644531 C 164.894531 150.53125 167.269531 150.355469 169.628906 150.0625 C 172.890625 149.664062 176.128906 149.050781 179.296875 148.160156 C 179.703125 148.050781 180.109375 147.929688 180.515625 147.804688 C 181.382812 147.539062 182.25 147.246094 183.109375 146.9375 C 184.824219 146.3125 186.5 145.585938 188.125 144.765625 C 188.453125 144.597656 188.78125 144.429688 189.101562 144.253906 C 194.214844 141.5 198.769531 137.738281 202.214844 133.007812 C 203.597656 131.109375 204.777344 129.0625 205.707031 126.910156 C 205.902344 126.457031 206.085938 126.003906 206.253906 125.539062 C 206.785156 124.128906 207.199219 122.675781 207.492188 121.191406 C 207.601562 120.640625 208.613281 120.878906 208.523438 121.425781 C 208.222656 123.292969 207.730469 125.101562 207.070312 126.839844 C 207.59375 127.730469 208.070312 128.652344 208.53125 129.566406 C 209.28125 131.070312 209.996094 132.597656 210.6875 134.132812 C 212.019531 137.0625 213.316406 140.015625 214.859375 142.84375 C 217.707031 148.0625 221.460938 153.003906 226.949219 155.605469 C 227.332031 155.789062 227.71875 155.957031 228.117188 156.109375 C 228.453125 156.246094 228.792969 156.367188 229.136719 156.476562 C 231.507812 157.246094 234.039062 157.511719 236.5 157.0625 C 237.011719 156.96875 237.472656 157.679688 236.84375 157.820312 C 234.324219 158.394531 231.789062 158.265625 229.367188 157.628906 C 229.761719 159.652344 230.097656 161.691406 230.347656 163.742188 C 231.597656 162.679688 233.136719 161.933594 234.761719 161.582031 C 238.410156 160.800781 242.046875 162.292969 244.453125 165.074219 C 246.886719 167.886719 247.820312 171.734375 246.925781 175.347656 Z M 143.59375 179.65625 C 143.40625 180.015625 143.207031 180.367188 142.992188 180.71875 C 142.300781 181.890625 141.515625 183.011719 140.636719 184.0625 C 140.167969 184.621094 138.902344 183.996094 139.402344 183.34375 C 140.222656 182.269531 140.976562 181.15625 141.660156 179.996094 C 141.269531 179.75 140.898438 179.484375 140.546875 179.214844 C 138.882812 177.90625 137.601562 176.085938 136.980469 174.054688 C 135.675781 169.769531 137.195312 164.953125 140.855469 162.339844 C 142.273438 161.328125 143.929688 160.675781 145.644531 160.441406 C 145.523438 159.53125 145.355469 158.621094 145.140625 157.730469 C 144.960938 156.988281 146.179688 156.902344 146.339844 157.527344 C 146.578125 158.460938 146.769531 159.398438 146.914062 160.34375 C 146.964844 160.679688 147.015625 161.015625 147.054688 161.351562 C 147.769531 167.292969 146.730469 173.40625 144.054688 178.773438 C 143.90625 179.074219 143.75 179.363281 143.59375 179.65625 Z M 266.710938 187.859375 C 265.277344 182.273438 262.359375 177.222656 258.800781 172.734375 C 255.246094 168.242188 251.015625 164.425781 246.90625 160.46875 C 245.035156 158.667969 243.21875 156.769531 241.757812 154.609375 C 240.246094 152.367188 239.246094 149.878906 238.882812 147.191406 C 238.46875 144.125 238.792969 141.027344 238.894531 137.957031 C 238.980469 135.390625 238.847656 132.816406 238.390625 130.285156 C 237.515625 125.414062 235.605469 120.703125 232.53125 116.804688 C 229.515625 112.984375 225.410156 110.230469 220.683594 109.035156 C 216.21875 107.902344 211.300781 108.222656 207.148438 110.289062 C 206.730469 110.492188 206.328125 110.714844 205.933594 110.949219 C 206.546875 111.625 207.128906 112.316406 207.695312 113.03125 C 208.082031 113.523438 207.214844 113.828125 206.894531 113.433594 C 206.339844 112.75 205.761719 112.085938 205.152344 111.445312 C 204.847656 111.113281 204.535156 110.789062 204.214844 110.472656 C 204.070312 110.328125 203.925781 110.1875 203.785156 110.046875 C 201.605469 107.941406 199.1875 106.089844 196.617188 104.503906 C 192.738281 102.105469 188.523438 100.316406 184.113281 99.171875 C 179.730469 98.03125 175.160156 97.542969 170.636719 97.738281 C 166.070312 97.9375 161.574219 98.847656 157.289062 100.425781 C 153.007812 101.992188 148.976562 104.191406 145.296875 106.875 C 141.597656 109.574219 138.265625 112.761719 135.378906 116.320312 C 132.492188 119.878906 130.050781 123.804688 128.175781 127.988281 C 126.050781 132.730469 124.621094 137.800781 123.910156 142.949219 C 123.171875 148.25 123.160156 153.652344 123.8125 158.964844 C 124.21875 162.273438 124.898438 165.546875 125.820312 168.746094 C 125.917969 169.085938 126.019531 169.425781 126.121094 169.761719 C 126.59375 171.320312 127.125 172.859375 127.710938 174.378906 C 127.945312 174.988281 128.183594 175.597656 128.429688 176.203125 C 128.671875 176.796875 128.855469 177.417969 129.125 177.996094 C 129.425781 178.644531 128.238281 178.757812 127.980469 178.203125 C 127.6875 177.5625 127.328125 176.960938 127.042969 176.320312 C 126.761719 175.691406 126.496094 175.058594 126.246094 174.417969 C 125.777344 173.226562 125.34375 172.019531 124.957031 170.800781 C 120.246094 175.03125 115.65625 179.492188 112.1875 184.808594 C 110.183594 187.878906 108.601562 191.21875 107.738281 194.792969 C 106.957031 198.035156 106.847656 201.421875 107.335938 204.71875 C 108.304688 211.304688 111.621094 217.542969 116.382812 222.167969 C 121.46875 227.109375 128.1875 229.898438 135.210938 230.5 C 141.5625 231.042969 147.925781 229.808594 153.722656 227.234375 C 154.183594 227.03125 154.640625 226.820312 155.089844 226.597656 C 155.550781 226.375 156.003906 226.140625 156.457031 225.898438 C 157.246094 225.476562 158.027344 225.023438 158.789062 224.558594 C 159.195312 224.304688 159.988281 224.921875 159.503906 225.273438 C 158.476562 226.019531 157.402344 226.703125 156.289062 227.324219 C 158.152344 228.425781 160.054688 229.453125 162.011719 230.367188 C 166.410156 232.414062 171.082031 233.921875 175.910156 234.515625 C 180.234375 235.050781 184.617188 234.851562 188.828125 233.695312 C 192.773438 232.617188 196.523438 230.804688 199.742188 228.269531 C 202.5 226.097656 204.878906 223.386719 206.511719 220.269531 C 206.484375 220.210938 206.457031 220.148438 206.429688 220.085938 C 206.296875 219.777344 206.570312 219.605469 206.847656 219.605469 C 207.007812 219.605469 207.175781 219.664062 207.261719 219.785156 C 207.421875 220 207.578125 220.21875 207.734375 220.433594 C 208.652344 221.695312 209.558594 222.957031 210.613281 224.113281 C 211.785156 225.398438 213.082031 226.597656 214.488281 227.621094 C 217.34375 229.699219 220.664062 231.152344 224.175781 231.597656 C 227.753906 232.046875 231.449219 231.527344 234.71875 229.984375 C 237.882812 228.496094 240.46875 226.042969 242.125 222.960938 C 243.367188 220.648438 244.109375 218.023438 244.128906 215.398438 C 244.136719 215.28125 244.132812 215.171875 244.132812 215.058594 C 244.128906 214.652344 244.105469 214.25 244.066406 213.84375 C 243.992188 213.109375 243.859375 212.375 243.660156 211.652344 C 243.542969 211.238281 244.308594 211.242188 244.421875 211.613281 C 244.683594 212.472656 244.863281 213.34375 244.964844 214.214844 C 248.445312 215.5 252.496094 215.296875 255.90625 213.988281 C 260.5625 212.203125 264.03125 208.234375 265.894531 203.671875 C 267.949219 198.640625 268.054688 193.085938 266.710938 187.859375"/><path fill="#4B322D" d="M 212.585938 171.289062 C 213.324219 168.855469 213.121094 166.21875 212.082031 163.898438 C 211.621094 162.871094 210.996094 161.902344 210.234375 161.070312 C 209.214844 161.628906 208.277344 162.335938 207.503906 163.105469 C 205.0625 165.574219 203.363281 169.46875 204.605469 172.917969 C 205.136719 174.382812 206.183594 175.597656 207.601562 176.257812 C 207.945312 176.421875 208.296875 176.542969 208.660156 176.640625 C 208.78125 176.667969 208.902344 176.699219 209.027344 176.722656 C 210.648438 175.246094 211.945312 173.40625 212.585938 171.289062 Z M 177.617188 172.195312 C 176.9375 173.148438 176.132812 173.976562 175.296875 174.785156 C 172.40625 173.265625 170.109375 170.457031 169.414062 167.261719 C 169.066406 165.6875 169.09375 163.96875 169.761719 162.472656 C 170.410156 161.03125 171.574219 159.902344 173.046875 159.324219 C 173.503906 159.148438 173.964844 159.023438 174.429688 158.949219 C 174.652344 158.914062 174.878906 158.886719 175.105469 158.875 C 175.96875 158.824219 176.839844 158.925781 177.6875 159.152344 C 177.972656 159.230469 178.253906 159.316406 178.527344 159.421875 C 178.636719 159.457031 178.738281 159.496094 178.847656 159.539062 C 178.847656 159.546875 178.851562 159.558594 178.855469 159.5625 C 180.109375 162.378906 180.324219 165.589844 179.421875 168.546875 C 179.019531 169.855469 178.414062 171.082031 177.617188 172.195312"/><path fill="#FFF" d="M 212.253906 176.660156 C 215.949219 175.847656 219.179688 172.878906 220.441406 169.320312 C 221.515625 166.28125 221.117188 162.441406 218.105469 160.660156 C 217.386719 160.238281 216.628906 159.980469 215.855469 159.863281 C 215.6875 159.835938 215.523438 159.820312 215.355469 159.804688 C 215.167969 159.789062 214.984375 159.777344 214.796875 159.78125 C 213.800781 159.78125 212.796875 159.984375 211.832031 160.339844 C 211.8125 160.347656 211.792969 160.351562 211.769531 160.359375 C 211.539062 160.441406 211.3125 160.539062 211.089844 160.640625 C 212.710938 162.355469 213.773438 164.546875 214.128906 166.894531 C 214.539062 169.585938 213.878906 172.433594 212.359375 174.691406 C 211.808594 175.515625 211.164062 176.242188 210.414062 176.859375 C 211.03125 176.863281 211.652344 176.789062 212.253906 176.660156 Z M 176.738281 175.421875 C 176.671875 175.394531 176.597656 175.371094 176.527344 175.34375 C 177.308594 174.753906 177.984375 174.039062 178.570312 173.257812 C 181.355469 169.550781 182.015625 164.617188 180.394531 160.3125 C 181.234375 160.8125 182.007812 161.417969 182.671875 162.074219 C 185.339844 164.777344 187.183594 169.277344 185.160156 172.878906 C 183.472656 175.875 179.78125 176.503906 176.738281 175.421875"/><path fill="#FCCFA0" d="M 237.984375 183.472656 C 241.207031 182.191406 243.863281 179.546875 245.117188 176.300781 C 246.34375 173.109375 246.046875 169.570312 244.160156 166.703125 C 242.421875 164.058594 239.457031 162.199219 236.226562 162.484375 C 234.113281 162.675781 232.019531 163.644531 230.503906 165.164062 C 230.847656 168.5625 230.925781 171.980469 230.605469 175.375 C 231.609375 174.542969 232.625 173.730469 233.636719 172.90625 C 234.585938 172.136719 235.558594 171.1875 236.757812 170.832031 C 237.777344 170.53125 239 170.773438 239.675781 171.636719 C 239.847656 171.847656 239.765625 172.128906 239.53125 172.25 C 239.269531 172.378906 238.949219 172.269531 238.765625 172.0625 C 238.175781 171.398438 237.148438 171.855469 236.554688 172.269531 C 235.621094 172.921875 234.777344 173.734375 233.902344 174.472656 C 232.992188 175.242188 232.082031 176.015625 231.167969 176.777344 C 230.898438 177 230.632812 177.226562 230.359375 177.453125 L 230.359375 177.457031 C 230.320312 177.71875 230.277344 177.988281 230.234375 178.25 C 229.910156 180.210938 229.425781 182.136719 228.765625 184 C 229.949219 184.257812 231.144531 184.429688 232.359375 184.457031 C 234.269531 184.503906 236.203125 184.175781 237.984375 183.472656 Z M 200.636719 174.636719 C 200.773438 173.125 200.566406 171.621094 200.074219 170.183594 C 199.894531 169.65625 198.875 169.769531 199.054688 170.398438 C 199.421875 171.691406 199.527344 173.089844 199.394531 174.429688 C 199.324219 175.089844 199.183594 175.75 198.992188 176.386719 C 198.789062 177.050781 198.476562 177.695312 198.335938 178.375 C 198.246094 178.808594 198.949219 179.101562 199.234375 178.792969 C 200.214844 177.734375 200.507812 176.03125 200.636719 174.636719 Z M 187.542969 185.679688 C 189.585938 187.175781 192.039062 188.191406 194.597656 188.179688 C 196.992188 188.164062 199.214844 187.246094 200.820312 185.445312 C 201.117188 185.109375 200.5 184.789062 200.234375 185.046875 C 199.335938 185.917969 198.203125 186.421875 197 186.714844 C 194.917969 187.21875 192.75 186.941406 190.804688 186.085938 C 189.785156 185.636719 188.820312 185.019531 187.9375 184.335938 C 187.039062 183.636719 186.253906 182.8125 185.394531 182.082031 C 184.957031 181.710938 183.9375 182.003906 184.390625 182.65625 C 185.210938 183.855469 186.375 184.828125 187.542969 185.679688 Z M 228.695312 178.738281 C 228.605469 179.207031 228.507812 179.671875 228.398438 180.136719 C 228.117188 181.328125 227.769531 182.503906 227.355469 183.652344 C 227.238281 183.988281 227.109375 184.316406 226.980469 184.644531 C 226.175781 186.648438 225.148438 188.566406 223.878906 190.332031 C 221.78125 193.253906 219.089844 195.699219 216.0625 197.628906 C 209.523438 201.796875 201.699219 203.351562 194.023438 202.894531 C 189.6875 202.636719 185.394531 201.792969 181.238281 200.546875 C 177.617188 199.464844 174.070312 198.101562 170.703125 196.378906 C 165.859375 193.898438 161.410156 190.632812 157.84375 186.539062 C 160.863281 182.378906 162.714844 177.398438 163.519531 172.34375 C 164.59375 165.550781 163.945312 158.675781 162.757812 151.941406 C 165.820312 151.835938 168.882812 151.558594 171.914062 151.109375 C 174.929688 150.660156 177.929688 150.019531 180.855469 149.136719 C 181.605469 149.460938 182.410156 149.652344 183.089844 149.734375 C 185.113281 149.964844 187.679688 149.625 189.140625 148.035156 C 189.691406 147.4375 190.046875 146.65625 189.925781 145.828125 C 189.90625 145.710938 189.882812 145.597656 189.847656 145.484375 C 192.132812 144.273438 194.3125 142.855469 196.347656 141.210938 C 200.636719 137.75 204.222656 133.375 206.441406 128.367188 C 206.847656 129.164062 207.246094 129.96875 207.632812 130.777344 C 208.453125 132.515625 209.226562 134.273438 210.019531 136.027344 C 212.636719 141.820312 215.4375 147.722656 220.066406 152.207031 C 222.386719 154.457031 225.230469 156.292969 228.304688 157.3125 C 228.304688 157.316406 228.308594 157.324219 228.308594 157.332031 C 228.6875 159.820312 229.019531 162.34375 229.226562 164.875 C 229.277344 165.449219 229.316406 166.023438 229.351562 166.597656 C 229.546875 169.960938 229.503906 173.324219 229.046875 176.644531 C 228.945312 177.34375 228.832031 178.042969 228.695312 178.738281 Z M 219.417969 160.328125 C 220.203125 159.230469 220.394531 157.523438 219.46875 156.457031 C 219.355469 156.335938 219.160156 156.285156 219.003906 156.332031 C 218.875 156.367188 218.726562 156.5 218.765625 156.652344 C 218.917969 157.226562 219.054688 157.824219 219.011719 158.410156 C 218.976562 158.894531 218.828125 159.359375 218.574219 159.777344 C 218.257812 159.597656 217.921875 159.445312 217.578125 159.320312 C 217.058594 159.128906 216.535156 159 216.003906 158.921875 C 215.925781 158.90625 215.851562 158.898438 215.773438 158.886719 C 215.980469 158.101562 215.945312 157.253906 215.550781 156.53125 C 215.464844 156.371094 215.269531 156.300781 215.097656 156.328125 C 214.945312 156.351562 214.777344 156.476562 214.816406 156.652344 C 214.96875 157.375 215.015625 158.121094 214.8125 158.820312 C 213.929688 158.800781 213.042969 158.917969 212.179688 159.140625 C 212.175781 159.0625 212.164062 158.984375 212.148438 158.90625 C 212.101562 158.695312 212.035156 158.492188 211.925781 158.308594 C 211.804688 158.101562 211.636719 157.929688 211.449219 157.773438 C 211.320312 157.667969 211.085938 157.675781 210.957031 157.773438 C 210.816406 157.875 210.824219 158.019531 210.90625 158.152344 C 210.90625 158.152344 210.910156 158.15625 210.917969 158.171875 C 210.929688 158.191406 210.949219 158.21875 210.953125 158.226562 C 210.976562 158.261719 210.992188 158.300781 211.011719 158.335938 C 211.042969 158.40625 211.074219 158.480469 211.105469 158.554688 C 211.136719 158.628906 211.160156 158.703125 211.1875 158.777344 C 211.1875 158.78125 211.191406 158.785156 211.191406 158.789062 C 211.195312 158.800781 211.199219 158.804688 211.199219 158.804688 C 211.199219 158.816406 211.203125 158.828125 211.203125 158.832031 C 211.214844 158.871094 211.222656 158.910156 211.226562 158.949219 C 211.242188 159.03125 211.253906 159.113281 211.261719 159.199219 C 211.261719 159.238281 211.261719 159.277344 211.261719 159.316406 C 211.261719 159.316406 211.265625 159.320312 211.261719 159.328125 L 211.261719 159.332031 C 211.261719 159.34375 211.261719 159.371094 211.261719 159.375 C 211.261719 159.394531 211.257812 159.414062 211.253906 159.429688 C 210.914062 159.546875 210.578125 159.683594 210.253906 159.835938 C 209.988281 159.957031 209.726562 160.089844 209.46875 160.230469 C 208.402344 160.820312 207.417969 161.5625 206.574219 162.402344 C 206.179688 162.796875 205.808594 163.21875 205.464844 163.65625 C 203.152344 166.609375 201.992188 171.058594 204.082031 174.445312 C 205.082031 176.074219 206.605469 177.070312 208.304688 177.53125 C 208.351562 177.542969 208.390625 177.554688 208.4375 177.5625 C 208.679688 177.628906 208.925781 177.679688 209.175781 177.714844 L 209.179688 177.714844 C 209.578125 177.78125 209.988281 177.816406 210.394531 177.824219 C 211.589844 177.855469 212.804688 177.65625 213.9375 177.253906 C 217.894531 175.859375 221.195312 172.320312 222.03125 168.160156 C 222.390625 166.371094 222.269531 164.441406 221.453125 162.792969 C 220.976562 161.820312 220.273438 160.976562 219.417969 160.328125 Z M 211.652344 143.761719 C 209.867188 142.433594 207.296875 142.1875 205.179688 142.675781 C 203.5 143.066406 201.519531 144.132812 201.433594 146.058594 C 201.429688 146.082031 201.429688 146.105469 201.429688 146.132812 L 201.429688 146.140625 C 201.429688 146.160156 201.429688 146.179688 201.433594 146.195312 C 201.433594 146.199219 201.433594 146.199219 201.433594 146.203125 C 201.535156 148.445312 204.316406 149.515625 206.183594 149.734375 C 208.214844 149.964844 210.773438 149.625 212.238281 148.035156 C 212.789062 147.4375 213.144531 146.65625 213.023438 145.828125 C 212.894531 144.976562 212.324219 144.265625 211.652344 143.761719 Z M 182.410156 160.453125 C 181.277344 159.566406 179.929688 158.839844 178.503906 158.386719 C 178.511719 158.320312 178.519531 158.257812 178.53125 158.195312 C 178.546875 158.109375 178.570312 158.023438 178.597656 157.9375 C 178.609375 157.910156 178.621094 157.878906 178.628906 157.847656 C 178.628906 157.847656 178.625 157.84375 178.632812 157.835938 C 178.632812 157.832031 178.636719 157.832031 178.636719 157.828125 C 178.644531 157.808594 178.652344 157.789062 178.660156 157.769531 C 178.730469 157.609375 178.792969 157.460938 178.886719 157.316406 C 178.984375 157.171875 178.855469 156.996094 178.730469 156.929688 C 178.566406 156.839844 178.382812 156.863281 178.242188 156.976562 C 178.078125 157.101562 177.917969 157.265625 177.816406 157.449219 C 177.71875 157.625 177.648438 157.824219 177.609375 158.023438 C 177.601562 158.0625 177.59375 158.101562 177.589844 158.136719 C 176.703125 157.933594 175.796875 157.839844 174.90625 157.890625 C 174.75 157.234375 174.808594 156.554688 174.945312 155.871094 C 174.980469 155.691406 174.808594 155.558594 174.664062 155.515625 C 174.503906 155.464844 174.296875 155.507812 174.207031 155.664062 C 173.808594 156.367188 173.777344 157.214844 173.976562 157.992188 C 173.097656 158.136719 172.246094 158.433594 171.441406 158.902344 C 171.359375 158.949219 171.28125 159 171.203125 159.050781 C 170.941406 158.644531 170.792969 158.183594 170.753906 157.6875 C 170.707031 157.066406 170.847656 156.484375 170.992188 155.875 C 171.074219 155.527344 170.496094 155.382812 170.296875 155.59375 C 169.285156 156.683594 169.613281 158.507812 170.460938 159.597656 L 170.460938 159.601562 C 169.421875 160.488281 168.671875 161.664062 168.285156 162.996094 C 167.757812 164.8125 167.953125 166.773438 168.558594 168.546875 C 169.585938 171.546875 171.894531 174.152344 174.730469 175.632812 C 174.992188 175.761719 175.253906 175.886719 175.515625 176 C 176.214844 176.304688 176.945312 176.542969 177.6875 176.703125 C 179.507812 177.089844 181.460938 176.996094 183.171875 176.214844 C 184.792969 175.46875 186.050781 174.105469 186.695312 172.441406 C 188.164062 168.644531 186.375 164.320312 183.664062 161.578125 C 183.265625 161.179688 182.847656 160.800781 182.410156 160.453125 Z M 142.257812 178.941406 C 141.84375 178.671875 141.445312 178.367188 141.078125 178.042969 C 138.035156 175.332031 137.171875 170.929688 138.71875 167.191406 C 139.933594 164.261719 142.703125 162.140625 145.777344 161.519531 C 145.847656 162.230469 145.890625 162.945312 145.910156 163.664062 C 146.003906 167.183594 145.46875 170.71875 144.367188 174.066406 C 143.808594 175.757812 143.097656 177.386719 142.257812 178.941406"/><g clip-path="url(#b)"><path fill="#323130" d="M 265.894531 203.671875 C 264.03125 208.234375 260.5625 212.203125 255.90625 213.988281 C 252.496094 215.296875 248.445312 215.5 244.964844 214.214844 C 244.863281 213.34375 244.683594 212.472656 244.421875 211.613281 C 244.308594 211.242188 243.542969 211.238281 243.660156 211.652344 C 243.859375 212.375 243.992188 213.109375 244.066406 213.84375 C 244.105469 214.25 244.128906 214.652344 244.132812 215.058594 C 244.132812 215.171875 244.136719 215.28125 244.128906 215.398438 C 244.109375 218.023438 243.367188 220.648438 242.125 222.960938 C 240.46875 226.042969 237.882812 228.496094 234.71875 229.984375 C 231.449219 231.527344 227.753906 232.046875 224.175781 231.597656 C 220.664062 231.152344 217.34375 229.699219 214.488281 227.621094 C 213.082031 226.597656 211.785156 225.398438 210.613281 224.113281 C 209.558594 222.957031 208.652344 221.695312 207.734375 220.433594 C 207.578125 220.21875 207.421875 220 207.261719 219.785156 C 207.175781 219.664062 207.007812 219.605469 206.847656 219.605469 C 206.570312 219.605469 206.296875 219.777344 206.429688 220.085938 C 206.457031 220.148438 206.484375 220.210938 206.511719 220.269531 C 204.878906 223.386719 202.5 226.097656 199.742188 228.269531 C 196.523438 230.804688 192.773438 232.617188 188.828125 233.695312 C 184.617188 234.851562 180.234375 235.050781 175.910156 234.515625 C 171.082031 233.921875 166.410156 232.414062 162.011719 230.367188 C 160.054688 229.453125 158.152344 228.425781 156.289062 227.324219 C 157.402344 226.703125 158.476562 226.019531 159.503906 225.273438 C 159.988281 224.921875 159.195312 224.304688 158.789062 224.558594 C 158.027344 225.023438 157.246094 225.476562 156.457031 225.898438 C 156.003906 226.140625 155.550781 226.375 155.089844 226.597656 C 154.640625 226.820312 154.183594 227.03125 153.722656 227.234375 C 147.925781 229.808594 141.5625 231.042969 135.210938 230.5 C 128.1875 229.898438 121.46875 227.109375 116.382812 222.167969 C 111.621094 217.542969 108.304688 211.304688 107.335938 204.71875 C 106.847656 201.421875 106.957031 198.035156 107.738281 194.792969 C 108.601562 191.21875 110.183594 187.878906 112.1875 184.808594 C 115.65625 179.492188 120.246094 175.03125 124.957031 170.800781 C 125.34375 172.019531 125.777344 173.226562 126.246094 174.417969 C 126.496094 175.058594 126.761719 175.691406 127.042969 176.320312 C 127.328125 176.960938 127.6875 177.5625 127.980469 178.203125 C 128.238281 178.757812 129.425781 178.644531 129.125 177.996094 C 128.855469 177.417969 128.671875 176.796875 128.429688 176.203125 C 128.183594 175.597656 127.945312 174.988281 127.710938 174.378906 C 127.125 172.859375 126.59375 171.320312 126.121094 169.761719 C 126.019531 169.425781 125.917969 169.085938 125.820312 168.746094 C 124.898438 165.546875 124.21875 162.273438 123.8125 158.964844 C 123.160156 153.652344 123.171875 148.25 123.910156 142.949219 C 124.621094 137.800781 126.050781 132.730469 128.175781 127.988281 C 130.050781 123.804688 132.492188 119.878906 135.378906 116.320312 C 138.265625 112.761719 141.597656 109.574219 145.296875 106.875 C 148.976562 104.191406 153.007812 101.992188 157.289062 100.425781 C 161.574219 98.847656 166.070312 97.9375 170.636719 97.738281 C 175.160156 97.542969 179.730469 98.03125 184.113281 99.171875 C 188.523438 100.316406 192.738281 102.105469 196.617188 104.503906 C 199.1875 106.089844 201.605469 107.941406 203.785156 110.046875 C 203.925781 110.1875 204.070312 110.328125 204.214844 110.472656 C 204.535156 110.789062 204.847656 111.113281 205.152344 111.445312 C 205.761719 112.085938 206.339844 112.75 206.894531 113.433594 C 207.214844 113.828125 208.082031 113.523438 207.695312 113.03125 C 207.128906 112.316406 206.546875 111.625 205.933594 110.949219 C 206.328125 110.714844 206.730469 110.492188 207.148438 110.289062 C 211.300781 108.222656 216.21875 107.902344 220.683594 109.035156 C 225.410156 110.230469 229.515625 112.984375 232.53125 116.804688 C 235.605469 120.703125 237.515625 125.414062 238.390625 130.285156 C 238.847656 132.816406 238.980469 135.390625 238.894531 137.957031 C 238.792969 141.027344 238.46875 144.125 238.882812 147.191406 C 239.246094 149.878906 240.246094 152.367188 241.757812 154.609375 C 243.21875 156.769531 245.035156 158.667969 246.90625 160.46875 C 251.015625 164.425781 255.246094 168.242188 258.800781 172.734375 C 262.359375 177.222656 265.277344 182.273438 266.710938 187.859375 C 268.054688 193.085938 267.949219 198.640625 265.894531 203.671875 Z M 267.355469 185.128906 C 265.398438 179.453125 262.027344 174.421875 258.121094 169.914062 C 256.152344 167.644531 254.046875 165.507812 251.875 163.429688 C 249.867188 161.503906 247.773438 159.660156 245.867188 157.632812 C 244.050781 155.699219 242.375 153.546875 241.351562 151.074219 C 240.175781 148.214844 240.074219 145.140625 240.1875 142.089844 C 240.292969 139.175781 240.511719 136.28125 240.253906 133.371094 C 240.023438 130.78125 239.519531 128.210938 238.726562 125.734375 C 237.160156 120.839844 234.429688 116.253906 230.550781 112.855469 C 223.730469 106.886719 212.835938 105.023438 205.011719 109.941406 C 204.824219 109.742188 204.628906 109.542969 204.433594 109.351562 C 201.519531 106.410156 198.164062 103.945312 194.503906 102.003906 C 190.320312 99.773438 185.800781 98.210938 181.148438 97.3125 C 176.554688 96.425781 171.820312 96.222656 167.167969 96.742188 C 162.519531 97.269531 157.964844 98.53125 153.691406 100.421875 C 149.417969 102.308594 145.414062 104.796875 141.808594 107.765625 C 138.1875 110.746094 134.953125 114.195312 132.210938 118.003906 C 129.4375 121.851562 127.167969 126.070312 125.5 130.515625 C 123.582031 135.613281 122.445312 140.996094 122.03125 146.421875 C 121.613281 151.851562 121.945312 157.316406 122.921875 162.671875 C 123.359375 165.066406 123.929688 167.433594 124.632812 169.761719 C 124.628906 169.765625 124.628906 169.765625 124.625 169.769531 C 118.925781 174.703125 113.199219 180.007812 109.503906 186.679688 C 107.71875 189.890625 106.417969 193.390625 105.925781 197.039062 C 105.46875 200.457031 105.675781 203.917969 106.453125 207.269531 C 108.003906 214.003906 111.886719 220.214844 117.207031 224.601562 C 122.972656 229.359375 130.351562 231.78125 137.78125 231.867188 C 143.65625 231.9375 149.679688 230.667969 154.976562 228.019531 C 155.375 228.265625 155.773438 228.503906 156.171875 228.742188 C 158.40625 230.066406 160.726562 231.242188 163.109375 232.265625 C 167.75 234.257812 172.703125 235.628906 177.753906 236.003906 C 182.246094 236.339844 186.753906 235.816406 191.027344 234.394531 C 195.046875 233.054688 198.855469 230.9375 202.007812 228.09375 C 204.085938 226.210938 205.84375 224.003906 207.171875 221.546875 C 207.941406 222.875 208.929688 224.101562 209.941406 225.222656 C 211.363281 226.785156 212.996094 228.160156 214.765625 229.316406 C 221.214844 233.527344 229.78125 234.257812 236.578125 230.410156 C 241.921875 227.378906 245.28125 221.457031 245.058594 215.417969 C 249.652344 217.035156 254.9375 216.34375 259.125 213.929688 C 263.625 211.34375 266.71875 206.707031 268.132812 201.777344 C 269.703125 196.308594 269.195312 190.472656 267.355469 185.128906 Z M 245.117188 176.300781 C 243.863281 179.546875 241.207031 182.191406 237.984375 183.472656 C 236.203125 184.175781 234.269531 184.503906 232.359375 184.457031 C 231.144531 184.429688 229.949219 184.257812 228.765625 184 C 229.425781 182.136719 229.910156 180.210938 230.234375 178.25 C 230.277344 177.988281 230.320312 177.71875 230.359375 177.457031 L 230.359375 177.453125 C 230.632812 177.226562 230.898438 177 231.167969 176.777344 C 232.082031 176.015625 232.992188 175.242188 233.902344 174.472656 C 234.777344 173.734375 235.621094 172.921875 236.554688 172.269531 C 237.148438 171.855469 238.175781 171.398438 238.765625 172.0625 C 238.949219 172.269531 239.269531 172.378906 239.53125 172.25 C 239.765625 172.128906 239.847656 171.847656 239.675781 171.636719 C 239 170.773438 237.777344 170.53125 236.757812 170.832031 C 235.558594 171.1875 234.585938 172.136719 233.636719 172.90625 C 232.625 173.730469 231.609375 174.542969 230.605469 175.375 C 230.925781 171.980469 230.847656 168.5625 230.503906 165.164062 C 232.019531 163.644531 234.113281 162.675781 236.226562 162.484375 C 239.457031 162.199219 242.421875 164.058594 244.160156 166.703125 C 246.046875 169.570312 246.34375 173.109375 245.117188 176.300781 Z M 228.398438 180.136719 C 228.117188 181.328125 227.769531 182.503906 227.355469 183.652344 C 227.238281 183.988281 227.109375 184.316406 226.980469 184.644531 C 226.175781 186.648438 225.148438 188.566406 223.878906 190.332031 C 221.78125 193.253906 219.089844 195.699219 216.0625 197.628906 C 209.523438 201.796875 201.699219 203.351562 194.023438 202.894531 C 189.6875 202.636719 185.394531 201.792969 181.238281 200.546875 C 177.617188 199.464844 174.070312 198.101562 170.703125 196.378906 C 165.859375 193.898438 161.410156 190.632812 157.84375 186.539062 C 160.863281 182.378906 162.714844 177.398438 163.519531 172.34375 C 164.59375 165.550781 163.945312 158.675781 162.757812 151.941406 C 165.820312 151.835938 168.882812 151.558594 171.914062 151.109375 C 174.929688 150.660156 177.929688 150.019531 180.855469 149.136719 C 181.605469 149.460938 182.410156 149.652344 183.089844 149.734375 C 185.113281 149.964844 187.679688 149.625 189.140625 148.035156 C 189.691406 147.4375 190.046875 146.65625 189.925781 145.828125 C 189.90625 145.710938 189.882812 145.597656 189.847656 145.484375 C 192.132812 144.273438 194.3125 142.855469 196.347656 141.210938 C 200.636719 137.75 204.222656 133.375 206.441406 128.367188 C 206.847656 129.164062 207.246094 129.96875 207.632812 130.777344 C 208.453125 132.515625 209.226562 134.273438 210.019531 136.027344 C 212.636719 141.820312 215.4375 147.722656 220.066406 152.207031 C 222.386719 154.457031 225.230469 156.292969 228.304688 157.3125 C 228.304688 157.316406 228.308594 157.324219 228.308594 157.332031 C 228.6875 159.820312 229.019531 162.34375 229.226562 164.875 C 229.277344 165.449219 229.316406 166.023438 229.351562 166.597656 C 229.546875 169.960938 229.503906 173.324219 229.046875 176.644531 C 228.945312 177.34375 228.832031 178.042969 228.695312 178.738281 C 228.605469 179.207031 228.507812 179.671875 228.398438 180.136719 Z M 188.730469 146.058594 C 188.738281 146.148438 188.730469 146.242188 188.714844 146.335938 C 188.605469 146.960938 188.160156 147.457031 187.65625 147.816406 C 186.226562 148.835938 184.195312 149.003906 182.523438 148.644531 C 182.503906 148.640625 182.484375 148.636719 182.460938 148.632812 C 184.609375 147.910156 186.707031 147.0625 188.730469 146.058594 Z M 234.761719 161.582031 C 233.136719 161.933594 231.597656 162.679688 230.347656 163.742188 C 230.097656 161.691406 229.761719 159.652344 229.367188 157.628906 C 231.789062 158.265625 234.324219 158.394531 236.84375 157.820312 C 237.472656 157.679688 237.011719 156.96875 236.5 157.0625 C 234.039062 157.511719 231.507812 157.246094 229.136719 156.476562 C 228.792969 156.367188 228.453125 156.246094 228.117188 156.109375 C 227.71875 155.957031 227.332031 155.789062 226.949219 155.605469 C 221.460938 153.003906 217.707031 148.0625 214.859375 142.84375 C 213.316406 140.015625 212.019531 137.0625 210.6875 134.132812 C 209.996094 132.597656 209.28125 131.070312 208.53125 129.566406 C 208.070312 128.652344 207.59375 127.730469 207.070312 126.839844 C 207.730469 125.101562 208.222656 123.292969 208.523438 121.425781 C 208.613281 120.878906 207.601562 120.640625 207.492188 121.191406 C 207.199219 122.675781 206.785156 124.128906 206.253906 125.539062 C 206.085938 126.003906 205.902344 126.457031 205.707031 126.910156 C 204.777344 129.0625 203.597656 131.109375 202.214844 133.007812 C 198.769531 137.738281 194.214844 141.5 189.101562 144.253906 C 188.78125 144.429688 188.453125 144.597656 188.125 144.765625 C 186.5 145.585938 184.824219 146.3125 183.109375 146.9375 C 182.25 147.246094 181.382812 147.539062 180.515625 147.804688 C 180.109375 147.929688 179.703125 148.050781 179.296875 148.160156 C 176.128906 149.050781 172.890625 149.664062 169.628906 150.0625 C 167.269531 150.355469 164.894531 150.53125 162.519531 150.644531 C 162.148438 150.664062 161.773438 150.679688 161.402344 150.691406 C 159.492188 150.769531 157.578125 150.8125 155.667969 150.847656 C 154.84375 150.863281 154.980469 151.847656 155.730469 151.882812 C 157.683594 151.984375 159.640625 152.011719 161.601562 151.972656 C 162.101562 155.28125 162.480469 158.605469 162.621094 161.953125 C 162.894531 168.671875 162.070312 175.527344 159.0625 181.609375 C 158.425781 182.90625 157.6875 184.15625 156.855469 185.347656 C 156.640625 185.65625 156.417969 185.964844 156.183594 186.265625 C 155.535156 187.128906 154.835938 187.945312 154.085938 188.71875 C 153.097656 189.742188 152.007812 190.671875 150.847656 191.492188 C 149.628906 192.347656 148.359375 193.054688 147.050781 193.753906 C 146.792969 193.890625 146.695312 194.164062 146.875 194.417969 C 147.066406 194.683594 147.410156 194.730469 147.703125 194.636719 C 150.863281 193.636719 153.652344 191.375 155.867188 188.964844 C 156.308594 188.484375 156.734375 187.988281 157.136719 187.476562 C 161.121094 192.277344 166.542969 195.820312 172.171875 198.40625 C 179.929688 201.976562 188.523438 204.25 197.097656 204.203125 C 204.910156 204.164062 212.761719 201.976562 219.058594 197.238281 C 222.011719 195.015625 224.5625 192.253906 226.4375 189.054688 C 227.175781 187.792969 227.808594 186.480469 228.34375 185.128906 C 232.171875 186.269531 236.589844 185.804688 240.0625 183.972656 C 243.394531 182.210938 246.015625 179.027344 246.925781 175.347656 C 247.820312 171.734375 246.886719 167.886719 244.453125 165.074219 C 242.046875 162.292969 238.410156 160.800781 234.761719 161.582031 Z M 220.441406 169.320312 C 219.179688 172.878906 215.949219 175.847656 212.253906 176.660156 C 211.652344 176.789062 211.03125 176.863281 210.414062 176.859375 C 211.164062 176.242188 211.808594 175.515625 212.359375 174.691406 C 213.878906 172.433594 214.539062 169.585938 214.128906 166.894531 C 213.773438 164.546875 212.710938 162.355469 211.089844 160.640625 C 211.3125 160.539062 211.539062 160.441406 211.769531 160.359375 C 211.792969 160.351562 211.8125 160.347656 211.832031 160.339844 C 212.796875 159.984375 213.800781 159.78125 214.796875 159.78125 C 214.984375 159.777344 215.167969 159.789062 215.355469 159.804688 C 215.523438 159.820312 215.6875 159.835938 215.855469 159.863281 C 216.628906 159.980469 217.386719 160.238281 218.105469 160.660156 C 221.117188 162.441406 221.515625 166.28125 220.441406 169.320312 Z M 209.027344 176.722656 C 208.902344 176.699219 208.78125 176.667969 208.660156 176.640625 C 208.296875 176.542969 207.945312 176.421875 207.601562 176.257812 C 206.183594 175.597656 205.136719 174.382812 204.605469 172.917969 C 203.363281 169.46875 205.0625 165.574219 207.503906 163.105469 C 208.277344 162.335938 209.214844 161.628906 210.234375 161.070312 C 210.996094 161.902344 211.621094 162.871094 212.082031 163.898438 C 213.121094 166.21875 213.324219 168.855469 212.585938 171.289062 C 211.945312 173.40625 210.648438 175.246094 209.027344 176.722656 Z M 219.417969 160.328125 C 220.203125 159.230469 220.394531 157.523438 219.46875 156.457031 C 219.355469 156.335938 219.160156 156.285156 219.003906 156.332031 C 218.875 156.367188 218.726562 156.5 218.765625 156.652344 C 218.917969 157.226562 219.054688 157.824219 219.011719 158.410156 C 218.976562 158.894531 218.828125 159.359375 218.574219 159.777344 C 218.257812 159.597656 217.921875 159.445312 217.578125 159.320312 C 217.058594 159.128906 216.535156 159 216.003906 158.921875 C 215.925781 158.90625 215.851562 158.898438 215.773438 158.886719 C 215.980469 158.101562 215.945312 157.253906 215.550781 156.53125 C 215.464844 156.371094 215.269531 156.300781 215.097656 156.328125 C 214.945312 156.351562 214.777344 156.476562 214.816406 156.652344 C 214.96875 157.375 215.015625 158.121094 214.8125 158.820312 C 213.929688 158.800781 213.042969 158.917969 212.179688 159.140625 C 212.175781 159.0625 212.164062 158.984375 212.148438 158.90625 C 212.101562 158.695312 212.035156 158.492188 211.925781 158.308594 C 211.804688 158.101562 211.636719 157.929688 211.449219 157.773438 C 211.320312 157.667969 211.085938 157.675781 210.957031 157.773438 C 210.816406 157.875 210.824219 158.019531 210.90625 158.152344 C 210.90625 158.152344 210.910156 158.15625 210.917969 158.171875 C 210.929688 158.191406 210.949219 158.21875 210.953125 158.226562 C 210.976562 158.261719 210.992188 158.300781 211.011719 158.335938 C 211.042969 158.40625 211.074219 158.480469 211.105469 158.554688 C 211.136719 158.628906 211.160156 158.703125 211.1875 158.777344 C 211.1875 158.78125 211.191406 158.785156 211.191406 158.789062 C 211.195312 158.800781 211.199219 158.804688 211.199219 158.804688 C 211.199219 158.816406 211.203125 158.828125 211.203125 158.832031 C 211.214844 158.871094 211.222656 158.910156 211.226562 158.949219 C 211.242188 159.03125 211.253906 159.113281 211.261719 159.199219 C 211.261719 159.238281 211.261719 159.277344 211.261719 159.316406 C 211.261719 159.316406 211.265625 159.320312 211.261719 159.328125 L 211.261719 159.332031 C 211.261719 159.34375 211.261719 159.371094 211.261719 159.375 C 211.261719 159.394531 211.257812 159.414062 211.253906 159.429688 C 210.914062 159.546875 210.578125 159.683594 210.253906 159.835938 C 209.988281 159.957031 209.726562 160.089844 209.46875 160.230469 C 208.402344 160.820312 207.417969 161.5625 206.574219 162.402344 C 206.179688 162.796875 205.808594 163.21875 205.464844 163.65625 C 203.152344 166.609375 201.992188 171.058594 204.082031 174.445312 C 205.082031 176.074219 206.605469 177.070312 208.304688 177.53125 C 208.351562 177.542969 208.390625 177.554688 208.4375 177.5625 C 208.679688 177.628906 208.925781 177.679688 209.175781 177.714844 L 209.179688 177.714844 C 209.578125 177.78125 209.988281 177.816406 210.394531 177.824219 C 211.589844 177.855469 212.804688 177.65625 213.9375 177.253906 C 217.894531 175.859375 221.195312 172.320312 222.03125 168.160156 C 222.390625 166.371094 222.269531 164.441406 221.453125 162.792969 C 220.976562 161.820312 220.273438 160.976562 219.417969 160.328125 Z M 202.640625 146.125 C 202.679688 144.40625 205.015625 143.660156 206.371094 143.496094 C 207.96875 143.308594 210.011719 143.558594 211.210938 144.753906 C 211.628906 145.167969 211.914062 145.734375 211.808594 146.335938 C 211.699219 146.960938 211.257812 147.457031 210.753906 147.816406 C 209.324219 148.835938 207.289062 149.003906 205.621094 148.644531 C 204.363281 148.378906 202.671875 147.628906 202.640625 146.125 Z M 212.238281 148.035156 C 212.789062 147.4375 213.144531 146.65625 213.023438 145.828125 C 212.894531 144.976562 212.324219 144.265625 211.652344 143.761719 C 209.867188 142.433594 207.296875 142.1875 205.179688 142.675781 C 203.5 143.066406 201.519531 144.132812 201.433594 146.058594 C 201.429688 146.082031 201.429688 146.105469 201.429688 146.132812 L 201.429688 146.140625 C 201.429688 146.160156 201.429688 146.179688 201.433594 146.195312 C 201.433594 146.199219 201.433594 146.199219 201.433594 146.203125 C 201.535156 148.445312 204.316406 149.515625 206.183594 149.734375 C 208.214844 149.964844 210.773438 149.625 212.238281 148.035156 Z M 200.820312 185.445312 C 199.214844 187.246094 196.992188 188.164062 194.597656 188.179688 C 192.039062 188.191406 189.585938 187.175781 187.542969 185.679688 C 186.375 184.828125 185.210938 183.855469 184.390625 182.65625 C 183.9375 182.003906 184.957031 181.710938 185.394531 182.082031 C 186.253906 182.8125 187.039062 183.636719 187.9375 184.335938 C 188.820312 185.019531 189.785156 185.636719 190.804688 186.085938 C 192.75 186.941406 194.917969 187.21875 197 186.714844 C 198.203125 186.421875 199.335938 185.917969 200.234375 185.046875 C 200.5 184.789062 201.117188 185.109375 200.820312 185.445312 Z M 198.335938 178.375 C 198.476562 177.695312 198.789062 177.050781 198.992188 176.386719 C 199.183594 175.75 199.324219 175.089844 199.394531 174.429688 C 199.527344 173.089844 199.421875 171.691406 199.054688 170.398438 C 198.875 169.769531 199.894531 169.65625 200.074219 170.183594 C 200.566406 171.621094 200.773438 173.125 200.636719 174.636719 C 200.507812 176.03125 200.214844 177.734375 199.234375 178.792969 C 198.949219 179.101562 198.246094 178.808594 198.335938 178.375 Z M 176.738281 175.421875 C 176.671875 175.394531 176.597656 175.371094 176.527344 175.34375 C 177.308594 174.753906 177.984375 174.039062 178.570312 173.257812 C 181.355469 169.550781 182.015625 164.617188 180.394531 160.3125 C 181.234375 160.8125 182.007812 161.417969 182.671875 162.074219 C 185.339844 164.777344 187.183594 169.277344 185.160156 172.878906 C 183.472656 175.875 179.78125 176.503906 176.738281 175.421875 Z M 175.296875 174.785156 C 172.40625 173.265625 170.109375 170.457031 169.414062 167.261719 C 169.066406 165.6875 169.09375 163.96875 169.761719 162.472656 C 170.410156 161.03125 171.574219 159.902344 173.046875 159.324219 C 173.503906 159.148438 173.964844 159.023438 174.429688 158.949219 C 174.652344 158.914062 174.878906 158.886719 175.105469 158.875 C 175.96875 158.824219 176.839844 158.925781 177.6875 159.152344 C 177.972656 159.230469 178.253906 159.316406 178.527344 159.421875 C 178.636719 159.457031 178.738281 159.496094 178.847656 159.539062 C 178.847656 159.546875 178.851562 159.558594 178.855469 159.5625 C 180.109375 162.378906 180.324219 165.589844 179.421875 168.546875 C 179.019531 169.855469 178.414062 171.082031 177.617188 172.195312 C 176.9375 173.148438 176.132812 173.976562 175.296875 174.785156 Z M 186.695312 172.441406 C 188.164062 168.644531 186.375 164.320312 183.664062 161.578125 C 183.265625 161.179688 182.847656 160.800781 182.410156 160.453125 C 181.277344 159.566406 179.929688 158.839844 178.503906 158.386719 C 178.511719 158.320312 178.519531 158.257812 178.53125 158.195312 C 178.546875 158.109375 178.570312 158.023438 178.597656 157.9375 C 178.609375 157.910156 178.621094 157.878906 178.628906 157.847656 C 178.628906 157.847656 178.625 157.84375 178.632812 157.835938 C 178.632812 157.832031 178.636719 157.832031 178.636719 157.828125 C 178.644531 157.808594 178.652344 157.789062 178.660156 157.769531 C 178.730469 157.609375 178.792969 157.460938 178.886719 157.316406 C 178.984375 157.171875 178.855469 156.996094 178.730469 156.929688 C 178.566406 156.839844 178.382812 156.863281 178.242188 156.976562 C 178.078125 157.101562 177.917969 157.265625 177.816406 157.449219 C 177.71875 157.625 177.648438 157.824219 177.609375 158.023438 C 177.601562 158.0625 177.59375 158.101562 177.589844 158.136719 C 176.703125 157.933594 175.796875 157.839844 174.90625 157.890625 C 174.75 157.234375 174.808594 156.554688 174.945312 155.871094 C 174.980469 155.691406 174.808594 155.558594 174.664062 155.515625 C 174.503906 155.464844 174.296875 155.507812 174.207031 155.664062 C 173.808594 156.367188 173.777344 157.214844 173.976562 157.992188 C 173.097656 158.136719 172.246094 158.433594 171.441406 158.902344 C 171.359375 158.949219 171.28125 159 171.203125 159.050781 C 170.941406 158.644531 170.792969 158.183594 170.753906 157.6875 C 170.707031 157.066406 170.847656 156.484375 170.992188 155.875 C 171.074219 155.527344 170.496094 155.382812 170.296875 155.59375 C 169.285156 156.683594 169.613281 158.507812 170.460938 159.597656 L 170.460938 159.601562 C 169.421875 160.488281 168.671875 161.664062 168.285156 162.996094 C 167.757812 164.8125 167.953125 166.773438 168.558594 168.546875 C 169.585938 171.546875 171.894531 174.152344 174.730469 175.632812 C 174.992188 175.761719 175.253906 175.886719 175.515625 176 C 176.214844 176.304688 176.945312 176.542969 177.6875 176.703125 C 179.507812 177.089844 181.460938 176.996094 183.171875 176.214844 C 184.792969 175.46875 186.050781 174.105469 186.695312 172.441406 Z M 144.367188 174.066406 C 143.808594 175.757812 143.097656 177.386719 142.257812 178.941406 C 141.84375 178.671875 141.445312 178.367188 141.078125 178.042969 C 138.035156 175.332031 137.171875 170.929688 138.71875 167.191406 C 139.933594 164.261719 142.703125 162.140625 145.777344 161.519531 C 145.847656 162.230469 145.890625 162.945312 145.910156 163.664062 C 146.003906 167.183594 145.46875 170.71875 144.367188 174.066406 Z M 147.054688 161.351562 C 147.015625 161.015625 146.964844 160.679688 146.914062 160.34375 C 146.769531 159.398438 146.578125 158.460938 146.339844 157.527344 C 146.179688 156.902344 144.960938 156.988281 145.140625 157.730469 C 145.355469 158.621094 145.523438 159.53125 145.644531 160.441406 C 143.929688 160.675781 142.273438 161.328125 140.855469 162.339844 C 137.195312 164.953125 135.675781 169.769531 136.980469 174.054688 C 137.601562 176.085938 138.882812 177.90625 140.546875 179.214844 C 140.898438 179.484375 141.269531 179.75 141.660156 179.996094 C 140.976562 181.15625 140.222656 182.269531 139.402344 183.34375 C 138.902344 183.996094 140.167969 184.621094 140.636719 184.0625 C 141.515625 183.011719 142.300781 181.890625 142.992188 180.71875 C 143.207031 180.367188 143.40625 180.015625 143.59375 179.65625 C 143.75 179.363281 143.90625 179.074219 144.054688 178.773438 C 146.730469 173.40625 147.769531 167.292969 147.054688 161.351562"/></g><g fill="#FFF2C7"><g><g><path d="M 1.109375 -11.390625 C 1.109375 -13.003906 1.773438 -14.316406 3.109375 -15.328125 C 4.453125 -16.335938 6.210938 -16.84375 8.390625 -16.84375 C 10.566406 -16.84375 12.347656 -16.3125 13.734375 -15.25 C 15.117188 -14.195312 15.8125 -13.09375 15.8125 -11.9375 C 15.8125 -11.789062 15.757812 -11.664062 15.65625 -11.5625 C 15.550781 -11.46875 15.4375 -11.421875 15.3125 -11.421875 L 10.5625 -11.421875 C 10.195312 -11.421875 9.863281 -11.550781 9.5625 -11.8125 C 9.257812 -12.082031 8.859375 -12.21875 8.359375 -12.21875 C 7.597656 -12.21875 7.21875 -12 7.21875 -11.5625 C 7.21875 -11.320312 7.398438 -11.125 7.765625 -10.96875 C 8.140625 -10.8125 8.832031 -10.664062 9.84375 -10.53125 C 12.207031 -10.238281 13.890625 -9.691406 14.890625 -8.890625 C 15.898438 -8.085938 16.40625 -6.875 16.40625 -5.25 C 16.40625 -3.632812 15.664062 -2.316406 14.1875 -1.296875 C 12.707031 -0.273438 10.769531 0.234375 8.375 0.234375 C 5.988281 0.234375 4.113281 -0.253906 2.75 -1.234375 C 1.394531 -2.210938 0.71875 -3.40625 0.71875 -4.8125 C 0.71875 -4.957031 0.765625 -5.082031 0.859375 -5.1875 C 0.960938 -5.289062 1.085938 -5.34375 1.234375 -5.34375 L 5.75 -5.34375 C 6.070312 -5.34375 6.4375 -5.179688 6.84375 -4.859375 C 7.25 -4.546875 7.804688 -4.390625 8.515625 -4.390625 C 9.703125 -4.390625 10.296875 -4.613281 10.296875 -5.0625 C 10.296875 -5.34375 10.082031 -5.554688 9.65625 -5.703125 C 9.226562 -5.859375 8.421875 -6.015625 7.234375 -6.171875 C 3.148438 -6.710938 1.109375 -8.453125 1.109375 -11.390625 Z M 1.109375 -11.390625" transform="translate(114.052 267.335)"/></g></g></g><g fill="#FFF2C7"><g><g><path d="M 1.359375 -16.609375 L 15.265625 -16.609375 C 15.429688 -16.609375 15.578125 -16.546875 15.703125 -16.421875 C 15.835938 -16.296875 15.90625 -16.144531 15.90625 -15.96875 L 15.90625 -12.15625 C 15.90625 -11.976562 15.835938 -11.828125 15.703125 -11.703125 C 15.578125 -11.578125 15.429688 -11.515625 15.265625 -11.515625 L 11.328125 -11.515625 L 11.328125 -0.640625 C 11.328125 -0.460938 11.257812 -0.3125 11.125 -0.1875 C 11 -0.0625 10.851562 0 10.6875 0 L 5.9375 0 C 5.757812 0 5.609375 -0.0625 5.484375 -0.1875 C 5.359375 -0.3125 5.296875 -0.460938 5.296875 -0.640625 L 5.296875 -11.515625 L 1.359375 -11.515625 C 1.179688 -11.515625 1.03125 -11.578125 0.90625 -11.703125 C 0.78125 -11.828125 0.71875 -11.976562 0.71875 -12.15625 L 0.71875 -15.96875 C 0.71875 -16.144531 0.78125 -16.296875 0.90625 -16.421875 C 1.03125 -16.546875 1.179688 -16.609375 1.359375 -16.609375 Z M 1.359375 -16.609375" transform="translate(131.877 267.335)"/></g></g></g><g fill="#FFF2C7"><g><g><path d="M 7.234375 -4.625 L 14.546875 -4.625 C 14.722656 -4.625 14.875 -4.5625 15 -4.4375 C 15.125 -4.3125 15.1875 -4.160156 15.1875 -3.984375 L 15.1875 -0.640625 C 15.1875 -0.460938 15.125 -0.3125 15 -0.1875 C 14.875 -0.0625 14.722656 0 14.546875 0 L 2.1875 0 C 2.007812 0 1.859375 -0.0625 1.734375 -0.1875 C 1.609375 -0.3125 1.546875 -0.460938 1.546875 -0.640625 L 1.546875 -15.96875 C 1.546875 -16.144531 1.609375 -16.296875 1.734375 -16.421875 C 1.859375 -16.546875 2.007812 -16.609375 2.1875 -16.609375 L 14.359375 -16.609375 C 14.535156 -16.609375 14.6875 -16.546875 14.8125 -16.421875 C 14.9375 -16.296875 15 -16.144531 15 -15.96875 L 15 -12.625 C 15 -12.445312 14.9375 -12.296875 14.8125 -12.171875 C 14.6875 -12.046875 14.535156 -11.984375 14.359375 -11.984375 L 7.234375 -11.984375 L 7.234375 -10.484375 L 13.84375 -10.484375 C 14.007812 -10.484375 14.15625 -10.421875 14.28125 -10.296875 C 14.414062 -10.171875 14.484375 -10.019531 14.484375 -9.84375 L 14.484375 -6.765625 C 14.484375 -6.585938 14.414062 -6.4375 14.28125 -6.3125 C 14.15625 -6.1875 14.007812 -6.125 13.84375 -6.125 L 7.234375 -6.125 Z M 7.234375 -4.625" transform="translate(149.203 267.335)"/></g></g></g><g fill="#FFF2C7"><g><g><path d="M 14.859375 -16.609375 L 18.609375 -16.609375 C 18.785156 -16.609375 18.9375 -16.546875 19.0625 -16.421875 C 19.1875 -16.296875 19.25 -16.144531 19.25 -15.96875 L 19.25 -0.640625 C 19.25 -0.460938 19.1875 -0.3125 19.0625 -0.1875 C 18.9375 -0.0625 18.785156 0 18.609375 0 L 14.3125 0 C 14.132812 0 13.984375 -0.0625 13.859375 -0.1875 C 13.734375 -0.3125 13.671875 -0.460938 13.671875 -0.640625 L 13.671875 -7.140625 L 12.109375 -4.578125 C 11.847656 -4.179688 11.550781 -3.984375 11.21875 -3.984375 L 9.5625 -3.984375 C 9.226562 -3.984375 8.9375 -4.179688 8.6875 -4.578125 L 7.125 -7.140625 L 7.125 -0.640625 C 7.125 -0.460938 7.054688 -0.3125 6.921875 -0.1875 C 6.796875 -0.0625 6.648438 0 6.484375 0 L 2.1875 0 C 2.007812 0 1.859375 -0.0625 1.734375 -0.1875 C 1.609375 -0.3125 1.546875 -0.460938 1.546875 -0.640625 L 1.546875 -15.96875 C 1.546875 -16.144531 1.609375 -16.296875 1.734375 -16.421875 C 1.859375 -16.546875 2.007812 -16.609375 2.1875 -16.609375 L 5.9375 -16.609375 C 6.375 -16.609375 6.710938 -16.394531 6.953125 -15.96875 L 10.390625 -10.28125 L 13.84375 -15.96875 C 14.070312 -16.394531 14.410156 -16.609375 14.859375 -16.609375 Z M 14.859375 -16.609375" transform="translate(166.41 267.335)"/></g></g></g><g fill="#FFF2C7"><g><g><path d="M 7.03125 0 L 2.1875 0 C 2.007812 0 1.859375 -0.0625 1.734375 -0.1875 C 1.609375 -0.3125 1.546875 -0.460938 1.546875 -0.640625 L 1.546875 -15.96875 C 1.546875 -16.144531 1.609375 -16.296875 1.734375 -16.421875 C 1.859375 -16.546875 2.007812 -16.609375 2.1875 -16.609375 L 7.03125 -16.609375 C 7.195312 -16.609375 7.34375 -16.546875 7.46875 -16.421875 C 7.601562 -16.296875 7.671875 -16.144531 7.671875 -15.96875 L 7.671875 -0.640625 C 7.671875 -0.460938 7.601562 -0.3125 7.46875 -0.1875 C 7.34375 -0.0625 7.195312 0 7.03125 0 Z M 7.03125 0" transform="translate(187.914 267.335)"/></g></g></g><g fill="#FFF2C7"><g><g><path d="M 11.5625 -16.609375 L 15.859375 -16.609375 C 16.023438 -16.609375 16.171875 -16.546875 16.296875 -16.421875 C 16.429688 -16.296875 16.5 -16.144531 16.5 -15.96875 L 16.5 -0.640625 C 16.5 -0.460938 16.429688 -0.3125 16.296875 -0.1875 C 16.171875 -0.0625 16.023438 0 15.859375 0 L 12.109375 0 C 11.691406 0 11.363281 -0.179688 11.125 -0.546875 L 7.125 -6.59375 L 7.125 -0.640625 C 7.125 -0.460938 7.054688 -0.3125 6.921875 -0.1875 C 6.796875 -0.0625 6.648438 0 6.484375 0 L 2.1875 0 C 2.007812 0 1.859375 -0.0625 1.734375 -0.1875 C 1.609375 -0.3125 1.546875 -0.460938 1.546875 -0.640625 L 1.546875 -15.96875 C 1.546875 -16.144531 1.609375 -16.296875 1.734375 -16.421875 C 1.859375 -16.546875 2.007812 -16.609375 2.1875 -16.609375 L 5.9375 -16.609375 C 6.375 -16.609375 6.695312 -16.425781 6.90625 -16.0625 L 10.921875 -9.5 L 10.921875 -15.96875 C 10.921875 -16.144531 10.984375 -16.296875 11.109375 -16.421875 C 11.234375 -16.546875 11.382812 -16.609375 11.5625 -16.609375 Z M 11.5625 -16.609375" transform="translate(197.835 267.335)"/></g></g></g><g fill="#FFF2C7"><g><g><path d="M 7.03125 0 L 2.1875 0 C 2.007812 0 1.859375 -0.0625 1.734375 -0.1875 C 1.609375 -0.3125 1.546875 -0.460938 1.546875 -0.640625 L 1.546875 -15.96875 C 1.546875 -16.144531 1.609375 -16.296875 1.734375 -16.421875 C 1.859375 -16.546875 2.007812 -16.609375 2.1875 -16.609375 L 7.03125 -16.609375 C 7.195312 -16.609375 7.34375 -16.546875 7.46875 -16.421875 C 7.601562 -16.296875 7.671875 -16.144531 7.671875 -15.96875 L 7.671875 -0.640625 C 7.671875 -0.460938 7.601562 -0.3125 7.46875 -0.1875 C 7.34375 -0.0625 7.195312 0 7.03125 0 Z M 7.03125 0" transform="translate(216.586 267.335)"/></g></g></g><g fill="#FFF2C7"><g><g><path d="M 1.109375 -11.390625 C 1.109375 -13.003906 1.773438 -14.316406 3.109375 -15.328125 C 4.453125 -16.335938 6.210938 -16.84375 8.390625 -16.84375 C 10.566406 -16.84375 12.347656 -16.3125 13.734375 -15.25 C 15.117188 -14.195312 15.8125 -13.09375 15.8125 -11.9375 C 15.8125 -11.789062 15.757812 -11.664062 15.65625 -11.5625 C 15.550781 -11.46875 15.4375 -11.421875 15.3125 -11.421875 L 10.5625 -11.421875 C 10.195312 -11.421875 9.863281 -11.550781 9.5625 -11.8125 C 9.257812 -12.082031 8.859375 -12.21875 8.359375 -12.21875 C 7.597656 -12.21875 7.21875 -12 7.21875 -11.5625 C 7.21875 -11.320312 7.398438 -11.125 7.765625 -10.96875 C 8.140625 -10.8125 8.832031 -10.664062 9.84375 -10.53125 C 12.207031 -10.238281 13.890625 -9.691406 14.890625 -8.890625 C 15.898438 -8.085938 16.40625 -6.875 16.40625 -5.25 C 16.40625 -3.632812 15.664062 -2.316406 14.1875 -1.296875 C 12.707031 -0.273438 10.769531 0.234375 8.375 0.234375 C 5.988281 0.234375 4.113281 -0.253906 2.75 -1.234375 C 1.394531 -2.210938 0.71875 -3.40625 0.71875 -4.8125 C 0.71875 -4.957031 0.765625 -5.082031 0.859375 -5.1875 C 0.960938 -5.289062 1.085938 -5.34375 1.234375 -5.34375 L 5.75 -5.34375 C 6.070312 -5.34375 6.4375 -5.179688 6.84375 -4.859375 C 7.25 -4.546875 7.804688 -4.390625 8.515625 -4.390625 C 9.703125 -4.390625 10.296875 -4.613281 10.296875 -5.0625 C 10.296875 -5.34375 10.082031 -5.554688 9.65625 -5.703125 C 9.226562 -5.859375 8.421875 -6.015625 7.234375 -6.171875 C 3.148438 -6.710938 1.109375 -8.453125 1.109375 -11.390625 Z M 1.109375 -11.390625" transform="translate(226.507 267.335)"/></g></g></g><g fill="#FFF2C7"><g><g><path d="M 1.359375 -16.609375 L 15.265625 -16.609375 C 15.429688 -16.609375 15.578125 -16.546875 15.703125 -16.421875 C 15.835938 -16.296875 15.90625 -16.144531 15.90625 -15.96875 L 15.90625 -12.15625 C 15.90625 -11.976562 15.835938 -11.828125 15.703125 -11.703125 C 15.578125 -11.578125 15.429688 -11.515625 15.265625 -11.515625 L 11.328125 -11.515625 L 11.328125 -0.640625 C 11.328125 -0.460938 11.257812 -0.3125 11.125 -0.1875 C 11 -0.0625 10.851562 0 10.6875 0 L 5.9375 0 C 5.757812 0 5.609375 -0.0625 5.484375 -0.1875 C 5.359375 -0.3125 5.296875 -0.460938 5.296875 -0.640625 L 5.296875 -11.515625 L 1.359375 -11.515625 C 1.179688 -11.515625 1.03125 -11.578125 0.90625 -11.703125 C 0.78125 -11.828125 0.71875 -11.976562 0.71875 -12.15625 L 0.71875 -15.96875 C 0.71875 -16.144531 0.78125 -16.296875 0.90625 -16.421875 C 1.03125 -16.546875 1.179688 -16.609375 1.359375 -16.609375 Z M 1.359375 -16.609375" transform="translate(244.331 267.335)"/></g></g></g><path transform="matrix(1.11282 0 0 1.11282 103.428 248.417)" fill="none" d="M 10.552959 6.761767 C 10.552959 5.312039 11.15321 4.129089 12.353711 3.219937 C 13.554212 2.310786 15.133819 1.857965 17.089021 1.857965 C 19.040713 1.857965 20.641381 2.335358 21.884005 3.290142 C 23.130139 4.241416 23.751451 5.234813 23.751451 6.273844 C 23.751451 6.400212 23.705818 6.51254 23.611042 6.607316 C 23.523286 6.695072 23.417979 6.740705 23.305651 6.740705 L 19.040713 6.740705 C 18.714261 6.740705 18.415891 6.621357 18.145602 6.382661 C 17.875314 6.140455 17.510249 6.017596 17.057429 6.017596 C 16.372933 6.017596 16.028929 6.21417 16.028929 6.610826 C 16.028929 6.824951 16.197421 7.003973 16.530893 7.147893 C 16.867876 7.288302 17.489188 7.418181 18.398339 7.526998 C 20.518523 7.797287 22.027925 8.29223 22.930056 9.011829 C 23.832187 9.731427 24.285007 10.819601 24.285007 12.276349 C 24.285007 13.736608 23.618062 14.923068 22.291192 15.83924 C 20.960813 16.755412 19.219735 17.215253 17.07147 17.215253 C 14.926715 17.215253 13.241801 16.772963 12.020238 15.891894 C 10.798676 15.007314 10.187895 13.936691 10.187895 12.673006 C 10.187895 12.543127 10.233528 12.43431 10.321284 12.339534 C 10.41606 12.244757 10.528388 12.199124 10.654756 12.199124 L 14.70908 12.199124 C 15.00745 12.199124 15.337413 12.339534 15.695457 12.627373 C 16.060521 12.911702 16.562485 13.052112 17.201349 13.052112 C 18.271971 13.052112 18.805527 12.855538 18.805527 12.458882 C 18.805527 12.202634 18.612464 12.006061 18.226338 11.869162 C 17.843722 11.735773 17.117103 11.595363 16.049991 11.454954 C 12.385303 10.970541 10.552959 9.408485 10.552959 6.761767 Z M 26.777276 2.06858 L 39.28074 2.06858 C 39.438701 2.06858 39.57209 2.128254 39.680907 2.240581 C 39.796745 2.352909 39.852909 2.486298 39.852909 2.644258 L 39.852909 6.080781 C 39.852909 6.235231 39.796745 6.37213 39.680907 6.484458 C 39.57209 6.596785 39.438701 6.652949 39.28074 6.652949 L 35.738911 6.652949 L 35.738911 16.421939 C 35.738911 16.5799 35.682747 16.713289 35.566909 16.829127 C 35.454582 16.941454 35.317683 17.001128 35.163232 17.001128 L 30.898294 17.001128 C 30.740333 17.001128 30.606944 16.941454 30.491106 16.829127 C 30.375269 16.713289 30.319105 16.5799 30.319105 16.421939 L 30.319105 6.652949 L 26.777276 6.652949 C 26.622825 6.652949 26.485926 6.596785 26.370088 6.484458 C 26.261271 6.37213 26.205107 6.235231 26.205107 6.080781 L 26.205107 2.644258 C 26.205107 2.486298 26.261271 2.352909 26.370088 2.240581 C 26.485926 2.128254 26.622825 2.06858 26.777276 2.06858 Z M 47.638615 12.837987 L 54.209779 12.837987 C 54.36774 12.837987 54.501129 12.897661 54.609946 13.009989 C 54.725784 13.125827 54.781948 13.262726 54.781948 13.417176 L 54.781948 16.421939 C 54.781948 16.5799 54.725784 16.713289 54.609946 16.829127 C 54.501129 16.941454 54.36774 17.001128 54.209779 17.001128 L 43.096368 17.001128 C 42.941918 17.001128 42.805018 16.941454 42.692691 16.829127 C 42.576853 16.713289 42.520689 16.5799 42.520689 16.421939 L 42.520689 2.644258 C 42.520689 2.486298 42.576853 2.352909 42.692691 2.240581 C 42.805018 2.128254 42.941918 2.06858 43.096368 2.06858 L 54.037777 2.06858 C 54.195738 2.06858 54.329127 2.128254 54.444965 2.240581 C 54.560803 2.352909 54.616967 2.486298 54.616967 2.644258 L 54.616967 5.652532 C 54.616967 5.810492 54.560803 5.943881 54.444965 6.059719 C 54.329127 6.172047 54.195738 6.231721 54.037777 6.231721 L 47.638615 6.231721 L 47.638615 7.576142 L 53.570916 7.576142 C 53.725366 7.576142 53.862266 7.632305 53.974593 7.744633 C 54.090431 7.856961 54.146595 7.99035 54.146595 8.14831 L 54.146595 10.921398 C 54.146595 11.079358 54.090431 11.212747 53.974593 11.328585 C 53.862266 11.440913 53.725366 11.497077 53.570916 11.497077 L 47.638615 11.497077 Z M 69.949683 2.06858 L 73.31951 2.06858 C 73.473961 2.06858 73.61086 2.128254 73.723188 2.240581 C 73.839025 2.352909 73.895189 2.486298 73.895189 2.644258 L 73.895189 16.421939 C 73.895189 16.5799 73.839025 16.713289 73.723188 16.829127 C 73.61086 16.941454 73.473961 17.001128 73.31951 17.001128 L 69.458249 17.001128 C 69.303799 17.001128 69.1669 16.941454 69.054572 16.829127 C 68.938734 16.713289 68.88257 16.5799 68.88257 16.421939 L 68.88257 10.577394 L 67.474965 12.88011 C 67.2468 13.238154 66.983532 13.417176 66.685162 13.417176 L 65.193311 13.417176 C 64.894941 13.417176 64.631673 13.238154 64.403508 12.88011 L 62.995903 10.577394 L 62.995903 16.421939 C 62.995903 16.5799 62.939739 16.713289 62.823901 16.829127 C 62.711574 16.941454 62.574674 17.001128 62.420224 17.001128 L 58.558963 17.001128 C 58.404513 17.001128 58.267613 16.941454 58.155286 16.829127 C 58.039448 16.713289 57.983284 16.5799 57.983284 16.421939 L 57.983284 2.644258 C 57.983284 2.486298 58.039448 2.352909 58.155286 2.240581 C 58.267613 2.128254 58.404513 2.06858 58.558963 2.06858 L 61.928791 2.06858 C 62.328958 2.06858 62.634348 2.261643 62.844963 2.644258 L 65.940992 7.762184 L 69.033511 2.644258 C 69.244125 2.261643 69.549516 2.06858 69.949683 2.06858 Z M 82.232002 17.001128 L 77.882819 17.001128 C 77.728368 17.001128 77.591469 16.941454 77.479141 16.829127 C 77.363303 16.713289 77.30714 16.5799 77.30714 16.421939 L 77.30714 2.644258 C 77.30714 2.486298 77.363303 2.352909 77.479141 2.240581 C 77.591469 2.128254 77.728368 2.06858 77.882819 2.06858 L 82.232002 2.06858 C 82.389963 2.06858 82.523352 2.128254 82.63919 2.240581 C 82.751518 2.352909 82.811192 2.486298 82.811192 2.644258 L 82.811192 16.421939 C 82.811192 16.5799 82.751518 16.713289 82.63919 16.829127 C 82.523352 16.941454 82.389963 17.001128 82.232002 17.001128 Z M 95.22339 2.06858 L 99.084651 2.06858 C 99.239102 2.06858 99.376001 2.128254 99.488328 2.240581 C 99.604166 2.352909 99.66033 2.486298 99.66033 2.644258 L 99.66033 16.421939 C 99.66033 16.5799 99.604166 16.713289 99.488328 16.829127 C 99.376001 16.941454 99.239102 17.001128 99.084651 17.001128 L 95.714823 17.001128 C 95.342738 17.001128 95.051389 16.836147 94.840774 16.509695 L 91.235761 11.068828 L 91.235761 16.421939 C 91.235761 16.5799 91.179597 16.713289 91.063759 16.829127 C 90.951432 16.941454 90.814532 17.001128 90.656572 17.001128 L 86.798821 17.001128 C 86.644371 17.001128 86.507471 16.941454 86.391634 16.829127 C 86.279306 16.713289 86.219632 16.5799 86.219632 16.421939 L 86.219632 2.644258 C 86.219632 2.486298 86.279306 2.352909 86.391634 2.240581 C 86.507471 2.128254 86.644371 2.06858 86.798821 2.06858 L 90.168649 2.06858 C 90.568816 2.06858 90.860165 2.233561 91.042698 2.560013 L 94.647711 8.471252 L 94.647711 2.644258 C 94.647711 2.486298 94.703875 2.352909 94.819713 2.240581 C 94.932041 2.128254 95.06894 2.06858 95.22339 2.06858 Z M 107.997143 17.001128 L 103.647959 17.001128 C 103.493509 17.001128 103.35661 16.941454 103.244282 16.829127 C 103.128444 16.713289 103.072281 16.5799 103.072281 16.421939 L 103.072281 2.644258 C 103.072281 2.486298 103.128444 2.352909 103.244282 2.240581 C 103.35661 2.128254 103.493509 2.06858 103.647959 2.06858 L 107.997143 2.06858 C 108.151594 2.06858 108.288493 2.128254 108.404331 2.240581 C 108.516658 2.352909 108.576332 2.486298 108.576332 2.644258 L 108.576332 16.421939 C 108.576332 16.5799 108.516658 16.713289 108.404331 16.829127 C 108.288493 16.941454 108.151594 17.001128 107.997143 17.001128 Z M 111.605667 6.761767 C 111.605667 5.312039 112.205918 4.129089 113.406419 3.219937 C 114.61043 2.310786 116.186527 1.857965 118.141729 1.857965 C 120.096931 1.857965 121.694089 2.335358 122.936713 3.290142 C 124.182847 4.241416 124.807669 5.234813 124.807669 6.273844 C 124.807669 6.400212 124.758526 6.51254 124.66726 6.607316 C 124.575994 6.695072 124.474197 6.740705 124.358359 6.740705 L 120.093421 6.740705 C 119.766969 6.740705 119.468598 6.621357 119.19831 6.382661 C 118.928022 6.140455 118.566467 6.017596 118.110137 6.017596 C 117.42564 6.017596 117.085147 6.21417 117.085147 6.610826 C 117.085147 6.824951 117.250129 7.003973 117.583601 7.147893 C 117.920584 7.288302 118.545406 7.418181 119.454557 7.526998 C 121.57123 7.797287 123.080632 8.29223 123.982763 9.011829 C 124.888405 9.731427 125.337715 10.819601 125.337715 12.276349 C 125.337715 13.736608 124.67428 14.923068 123.3439 15.83924 C 122.01352 16.755412 120.275953 17.215253 118.124178 17.215253 C 115.979423 17.215253 114.298019 16.772963 113.072946 15.891894 C 111.851384 15.007314 111.240602 13.936691 111.240602 12.673006 C 111.240602 12.543127 111.286236 12.43431 111.377502 12.339534 C 111.468768 12.244757 111.581095 12.199124 111.710974 12.199124 L 115.761788 12.199124 C 116.060158 12.199124 116.39012 12.339534 116.751675 12.627373 C 117.11674 12.911702 117.618703 13.052112 118.257567 13.052112 C 119.324679 13.052112 119.858235 12.855538 119.858235 12.458882 C 119.858235 12.202634 119.668682 12.006061 119.282556 11.869162 C 118.89643 11.735773 118.169811 11.595363 117.106209 11.454954 C 113.438011 10.970541 111.605667 9.408485 111.605667 6.761767 Z M 127.833494 2.06858 L 140.333448 2.06858 C 140.491409 2.06858 140.624798 2.128254 140.737125 2.240581 C 140.849453 2.352909 140.909127 2.486298 140.909127 2.644258 L 140.909127 6.080781 C 140.909127 6.235231 140.849453 6.37213 140.737125 6.484458 C 140.624798 6.596785 140.491409 6.652949 140.333448 6.652949 L 136.795129 6.652949 L 136.795129 16.421939 C 136.795129 16.5799 136.735455 16.713289 136.623128 16.829127 C 136.50729 16.941454 136.37039 17.001128 136.21594 17.001128 L 131.951002 17.001128 C 131.793041 17.001128 131.659652 16.941454 131.543814 16.829127 C 131.431487 16.713289 131.371813 16.5799 131.371813 16.421939 L 131.371813 6.652949 L 127.833494 6.652949 C 127.675533 6.652949 127.538634 6.596785 127.426306 6.484458 C 127.313979 6.37213 127.257815 6.235231 127.257815 6.080781 L 127.257815 2.644258 C 127.257815 2.486298 127.313979 2.352909 127.426306 2.240581 C 127.538634 2.128254 127.675533 2.06858 127.833494 2.06858 Z M 127.833494 2.06858" stroke="#323130" stroke-width=".8"/><g clip-path="url(#c)"><path fill="#F1A1B9" d="M 214.589844 181.628906 C 207.117188 181.628906 201.039062 175.574219 201.039062 168.132812 C 201.039062 160.691406 207.117188 154.636719 214.589844 154.636719 C 222.058594 154.636719 228.136719 160.691406 228.136719 168.132812 C 228.136719 175.574219 222.058594 181.628906 214.589844 181.628906 Z M 178.117188 181.628906 C 170.644531 181.628906 164.570312 175.574219 164.570312 168.132812 C 164.570312 160.691406 170.644531 154.636719 178.117188 154.636719 C 185.585938 154.636719 191.664062 160.691406 191.664062 168.132812 C 191.664062 175.574219 185.585938 181.628906 178.117188 181.628906 Z M 231.671875 166.109375 L 230.230469 166.109375 C 229.230469 158.398438 222.597656 152.417969 214.589844 152.417969 C 207.230469 152.417969 201.035156 157.460938 199.300781 164.261719 C 198.492188 163.613281 197.46875 163.222656 196.351562 163.222656 C 195.238281 163.222656 194.214844 163.613281 193.410156 164.261719 C 191.671875 157.460938 185.476562 152.417969 178.117188 152.417969 C 170.105469 152.417969 163.476562 158.398438 162.476562 166.109375 L 160.792969 166.109375 C 159.667969 166.109375 158.761719 167.015625 158.761719 168.132812 C 158.761719 169.253906 159.667969 170.160156 160.792969 170.160156 L 162.476562 170.160156 C 163.476562 177.867188 170.109375 183.847656 178.117188 183.847656 C 186.816406 183.847656 193.894531 176.796875 193.894531 168.132812 C 193.894531 168.050781 193.886719 167.96875 193.886719 167.886719 L 193.894531 167.886719 C 193.894531 166.539062 194.996094 165.4375 196.351562 165.4375 C 197.710938 165.4375 198.8125 166.539062 198.8125 167.886719 L 198.820312 167.886719 C 198.820312 167.96875 198.8125 168.050781 198.8125 168.132812 C 198.8125 176.796875 205.890625 183.847656 214.589844 183.847656 C 222.597656 183.847656 229.226562 177.867188 230.230469 170.160156 L 231.671875 170.160156 C 232.792969 170.160156 233.703125 169.253906 233.703125 168.132812 C 233.703125 167.015625 232.792969 166.109375 231.671875 166.109375"/></g><g clip-path="url(#d)"><path fill="#393536" d="M 214.589844 181.628906 L 214.589844 181.230469 C 210.964844 181.230469 207.679688 179.761719 205.296875 177.390625 C 202.914062 175.015625 201.441406 171.742188 201.441406 168.132812 C 201.441406 164.519531 202.914062 161.25 205.296875 158.875 C 207.679688 156.503906 210.964844 155.035156 214.589844 155.035156 C 218.214844 155.035156 221.5 156.503906 223.882812 158.875 C 226.265625 161.25 227.738281 164.519531 227.738281 168.132812 C 227.738281 171.742188 226.265625 175.015625 223.882812 177.390625 C 221.5 179.761719 218.214844 181.230469 214.589844 181.230469 L 214.589844 182.027344 C 222.28125 182.027344 228.539062 175.796875 228.539062 168.132812 C 228.539062 160.46875 222.28125 154.238281 214.589844 154.238281 C 206.898438 154.238281 200.640625 160.46875 200.640625 168.132812 C 200.640625 175.796875 206.898438 182.027344 214.589844 182.027344 Z M 178.117188 181.628906 L 178.117188 181.230469 C 174.492188 181.230469 171.207031 179.761719 168.824219 177.390625 C 166.441406 175.015625 164.96875 171.742188 164.96875 168.132812 C 164.96875 164.519531 166.441406 161.25 168.824219 158.875 C 171.207031 156.503906 174.492188 155.035156 178.117188 155.035156 C 181.742188 155.035156 185.027344 156.503906 187.410156 158.875 C 189.789062 161.25 191.265625 164.519531 191.265625 168.132812 C 191.265625 171.742188 189.789062 175.015625 187.410156 177.390625 C 185.027344 179.761719 181.742188 181.230469 178.117188 181.230469 L 178.117188 182.027344 C 185.804688 182.027344 192.066406 175.796875 192.066406 168.132812 C 192.066406 160.46875 185.804688 154.238281 178.117188 154.238281 C 170.425781 154.238281 164.167969 160.46875 164.167969 168.132812 C 164.167969 175.796875 170.425781 182.027344 178.117188 182.027344 Z M 231.671875 166.109375 L 231.671875 165.710938 L 230.230469 165.710938 L 230.230469 166.109375 L 230.628906 166.058594 C 230.113281 162.101562 228.15625 158.59375 225.304688 156.074219 C 222.449219 153.550781 218.695312 152.019531 214.589844 152.019531 C 210.816406 152.019531 207.339844 153.3125 204.585938 155.476562 C 201.835938 157.640625 199.800781 160.675781 198.910156 164.164062 L 199.300781 164.261719 L 199.550781 163.953125 C 198.679688 163.246094 197.5625 162.824219 196.351562 162.824219 C 195.140625 162.824219 194.027344 163.246094 193.15625 163.949219 L 193.410156 164.261719 L 193.796875 164.164062 C 192.90625 160.675781 190.875 157.640625 188.121094 155.476562 C 185.367188 153.3125 181.890625 152.019531 178.117188 152.019531 C 174.011719 152.019531 170.253906 153.550781 167.402344 156.074219 C 164.546875 158.59375 162.589844 162.101562 162.078125 166.058594 L 162.476562 166.109375 L 162.476562 165.710938 L 160.792969 165.710938 C 159.449219 165.710938 158.359375 166.792969 158.359375 168.132812 C 158.359375 169.472656 159.449219 170.558594 160.792969 170.558594 L 162.476562 170.558594 L 162.476562 170.160156 L 162.078125 170.210938 C 162.59375 174.164062 164.550781 177.671875 167.402344 180.191406 C 170.257812 182.714844 174.011719 184.246094 178.117188 184.246094 C 187.039062 184.246094 194.292969 177.019531 194.292969 168.132812 C 194.292969 168.035156 194.289062 167.949219 194.289062 167.882812 L 193.886719 167.886719 L 193.886719 168.285156 L 194.292969 168.285156 L 194.292969 167.886719 C 194.292969 167.324219 194.523438 166.8125 194.898438 166.4375 C 195.269531 166.066406 195.78125 165.835938 196.351562 165.835938 C 196.921875 165.835938 197.433594 166.066406 197.808594 166.4375 C 198.183594 166.8125 198.414062 167.324219 198.414062 167.886719 L 198.414062 168.285156 L 198.820312 168.285156 L 198.820312 167.886719 L 198.417969 167.882812 C 198.417969 167.949219 198.414062 168.035156 198.414062 168.132812 C 198.414062 177.019531 205.667969 184.246094 214.589844 184.246094 C 218.695312 184.246094 222.449219 182.714844 225.300781 180.191406 C 228.15625 177.671875 230.113281 174.164062 230.625 170.210938 L 230.230469 170.160156 L 230.230469 170.558594 L 231.671875 170.558594 C 232.34375 170.558594 232.953125 170.285156 233.390625 169.847656 C 233.828125 169.410156 234.101562 168.800781 234.101562 168.132812 C 234.101562 166.796875 233.015625 165.710938 231.671875 165.710938 L 231.671875 166.507812 C 232.121094 166.507812 232.527344 166.6875 232.824219 166.984375 C 233.117188 167.277344 233.300781 167.683594 233.300781 168.132812 C 233.300781 168.585938 233.117188 168.988281 232.824219 169.285156 C 232.527344 169.578125 232.121094 169.757812 231.671875 169.757812 L 229.875 169.757812 L 229.832031 170.109375 C 229.34375 173.863281 227.484375 177.199219 224.769531 179.597656 C 222.054688 181.992188 218.492188 183.449219 214.589844 183.449219 C 210.347656 183.449219 206.507812 181.730469 203.722656 178.957031 C 200.9375 176.183594 199.214844 172.355469 199.214844 168.132812 C 199.214844 168.066406 199.21875 167.988281 199.222656 167.894531 L 199.226562 167.488281 L 198.8125 167.488281 L 198.8125 167.886719 L 199.214844 167.886719 C 199.214844 166.316406 197.933594 165.039062 196.351562 165.039062 C 194.773438 165.039062 193.492188 166.316406 193.492188 167.886719 L 193.894531 167.886719 L 193.894531 167.488281 L 193.480469 167.488281 L 193.488281 167.894531 C 193.488281 167.988281 193.492188 168.066406 193.492188 168.132812 C 193.492188 172.355469 191.769531 176.183594 188.984375 178.957031 C 186.199219 181.730469 182.359375 183.449219 178.117188 183.449219 C 174.214844 183.449219 170.648438 181.992188 167.933594 179.597656 C 165.222656 177.199219 163.363281 173.863281 162.875 170.109375 L 162.828125 169.757812 L 160.792969 169.757812 C 160.339844 169.757812 159.933594 169.578125 159.636719 169.285156 C 159.34375 168.988281 159.160156 168.582031 159.160156 168.132812 C 159.160156 167.683594 159.34375 167.28125 159.636719 166.984375 C 159.933594 166.691406 160.339844 166.507812 160.792969 166.507812 L 162.828125 166.507812 L 162.875 166.160156 C 163.359375 162.402344 165.21875 159.066406 167.933594 156.671875 C 170.648438 154.273438 174.210938 152.816406 178.117188 152.816406 C 181.703125 152.816406 185.003906 154.046875 187.621094 156.101562 C 190.242188 158.160156 192.175781 161.046875 193.019531 164.359375 L 193.175781 164.964844 L 193.660156 164.570312 C 194.398438 163.976562 195.332031 163.621094 196.351562 163.621094 C 197.375 163.621094 198.308594 163.976562 199.046875 164.574219 L 199.535156 164.964844 L 199.6875 164.359375 C 200.53125 161.046875 202.464844 158.160156 205.082031 156.105469 C 207.703125 154.046875 211.003906 152.816406 214.589844 152.816406 C 218.492188 152.816406 222.058594 154.273438 224.773438 156.671875 C 227.484375 159.066406 229.34375 162.402344 229.832031 166.160156 L 229.878906 166.507812 L 231.671875 166.507812 L 231.671875 166.109375"/></g></svg>